# xmcd
# 
# Track frame offsets:
#     150
#     14306
#     27833
#     41806
#     58357
#     76351
#     92674
#     106591
#     124867
#     142672
#     159510
#     173965
#     190851
# 
# Disc length: 2844
# 
# Revision: 3
# Processed by: cddbd v1.5.2PL0 Copyright (c) Steve Scherf et al.
# Submitted via: fre:ac v1.1beta1pre3
# 
DISCID=a10b1a0d
DTITLE=Joe Nichols - Real Things
DYEAR=2007
DGENRE=Country
TTITLE0=Real Things
TTITLE1=Another Side Of You
TTITLE2=Who Are You When I'm Not Looking
TTITLE3=Comin' Back In A Cadillac
TTITLE4=My Whiskey Years
TTITLE5=It Ain't No Crime
TTITLE6=All Good Things
TTITLE7=Let's Get Drunk and Fight
TTITLE8=Ain't Nobody Gonna Take That From Me
TTITLE9=She's All Lady
TTITLE10=The Difference Is Night and Day
TTITLE11=All I Need Is A Heart
TTITLE12=If I Could Only Fly Featuring Lee Ann Womack
EXTD=Corrected capitalization and other issues.
EXTT0=
EXTT1=
EXTT2=
EXTT3=
EXTT4=
EXTT5=
EXTT6=
EXTT7=
EXTT8=
EXTT9=
EXTT10=
EXTT11=
EXTT12=
PLAYORDER=
